<mxfile host="app.diagrams.net" modified="2023-12-24T12:13:29.818Z" agent="Mozilla/5.0 (Macintosh; Intel Mac OS X 10_15_7) AppleWebKit/537.36 (KHTML, like Gecko) Chrome/120.0.0.0 Safari/537.36" etag="qhUC-QPE3TXM6oYoTDHH" version="22.1.11" type="github">
  <diagram name="第 1 页" id="3JIc8dy5aZu-XoGQvfik">
    <mxGraphModel dx="1194" dy="665" grid="1" gridSize="10" guides="1" tooltips="1" connect="1" arrows="1" fold="1" page="1" pageScale="1" pageWidth="827" pageHeight="1169" math="0" shadow="0">
      <root>
        <mxCell id="0" />
        <mxCell id="1" parent="0" />
        <mxCell id="5Hhgkj8GtPOUE0QWpRWp-1" value="Attribute" style="ellipse;whiteSpace=wrap;html=1;align=center;dashed=1;" vertex="1" parent="1">
          <mxGeometry x="360" y="320" width="100" height="40" as="geometry" />
        </mxCell>
        <mxCell id="5Hhgkj8GtPOUE0QWpRWp-3" style="edgeStyle=orthogonalEdgeStyle;rounded=0;orthogonalLoop=1;jettySize=auto;html=1;entryX=0.5;entryY=0;entryDx=0;entryDy=0;" edge="1" parent="1" source="5Hhgkj8GtPOUE0QWpRWp-2" target="5Hhgkj8GtPOUE0QWpRWp-1">
          <mxGeometry relative="1" as="geometry" />
        </mxCell>
        <mxCell id="5Hhgkj8GtPOUE0QWpRWp-2" value="Associative&#xa;Entity" style="shape=associativeEntity;whiteSpace=wrap;html=1;align=center;" vertex="1" parent="1">
          <mxGeometry x="150" y="120" width="140" height="60" as="geometry" />
        </mxCell>
      </root>
    </mxGraphModel>
  </diagram>
</mxfile>
